inDegrees=no
num_controls=7
num_derivatives=13
num_iterations=147
num_multipliers=7
num_parameters=0
num_slacks=7
num_states=26
objective=5.561375
objective_accelerations=0.766451
objective_balance=0.047485
objective_effort=0.315013
objective_height=4.316576
objective_ligament=0.115850
solver_duration=1669.236105
status=Solve_Succeeded
success=true
DataType=double
version=3
OpenSimVersion=4.4-2022-07-23-0e9fedc
endheader
time	/jointset/ground_pelvis/pelvis_tilt/value	/jointset/ground_pelvis/pelvis_tx/value	/jointset/ground_pelvis/pelvis_ty/value	/jointset/hip_l/hip_flexion_l/value	/jointset/hip_l/hip_adduction_l/value	/jointset/hip_l/hip_rotation_l/value	/jointset/back/lumbar_extension/value	/jointset/patellofemoral_l/patellar_flexion_l/value	/jointset/knee_l/knee_flexion_l/value	/jointset/knee_l/knee_adduction_l/value	/jointset/knee_l/knee_rotation_l/value	/jointset/ankle_l/ankle_angle_l/value	/jointset/subtalar_l/subtalar_angle_l/value	/jointset/ground_pelvis/pelvis_tilt/speed	/jointset/ground_pelvis/pelvis_tx/speed	/jointset/ground_pelvis/pelvis_ty/speed	/jointset/hip_l/hip_flexion_l/speed	/jointset/hip_l/hip_adduction_l/speed	/jointset/hip_l/hip_rotation_l/speed	/jointset/back/lumbar_extension/speed	/jointset/patellofemoral_l/patellar_flexion_l/speed	/jointset/knee_l/knee_flexion_l/speed	/jointset/knee_l/knee_adduction_l/speed	/jointset/knee_l/knee_rotation_l/speed	/jointset/ankle_l/ankle_angle_l/speed	/jointset/subtalar_l/subtalar_angle_l/speed	/forceset/tau_hip_flexion_l	/forceset/tau_hip_adduction_l	/forceset/tau_hip_rotation_l	/forceset/tau_knee_flexion_l	/forceset/tau_ankle_angle_l	/forceset/tau_subtalar_angle_l	/forceset/tau_lumbar_extension	lambda_cid13_p0	lambda_cid13_p1	lambda_cid13_p2	lambda_cid13_p3	lambda_cid13_p4	lambda_cid13_p5	lambda_cid14_p0	/jointset/ground_pelvis/pelvis_tilt/accel	/jointset/ground_pelvis/pelvis_tx/accel	/jointset/ground_pelvis/pelvis_ty/accel	/jointset/hip_l/hip_flexion_l/accel	/jointset/hip_l/hip_adduction_l/accel	/jointset/hip_l/hip_rotation_l/accel	/jointset/back/lumbar_extension/accel	/jointset/patellofemoral_l/patellar_flexion_l/accel	/jointset/knee_l/knee_flexion_l/accel	/jointset/knee_l/knee_adduction_l/accel	/jointset/knee_l/knee_rotation_l/accel	/jointset/ankle_l/ankle_angle_l/accel	/jointset/subtalar_l/subtalar_angle_l/accel	gamma_cid13_p0	gamma_cid13_p1	gamma_cid13_p2	gamma_cid13_p3	gamma_cid13_p4	gamma_cid13_p5	gamma_cid14_p0
0	-0.0400423766303625	0.06914244221934199	0.8959716594653562	0.1955292361009247	-0.3217885622113337	-0.4877466498178028	-0.137903700187828	0.07015350928390862	0.07015350928391206	-0.1745329251994329	-0.1219955438367185	-0.06701017130107029	0.004103670572470437	0	0	0	0	0	0	0	0	0	0	0	0	0	0.1062685538036856	-0.0839519801949818	-0.02870904375843442	-0.216706688641849	0.1608381035249274	-0.02210725623105395	-0.05405787253446802	15.44444430118686	2.893720771002954	3.775419172303835	14.27617256085302	-514.5193882696345	-75.20961779161655	-40.02576538385678	-5.344911942007739	-2.367660880639483	-1.059229053724606	14.00098899734756	-2.0288054771936	3.267356885762581	-2.957647036649682	9.85809112731121	9.858091127308105	0.6962422830071922	-0.8861137731663193	1.397089903546079	-1.468869867883675	-1.664048725863414e-08	1.01049791561163e-07	9.99162436444361e-08	6.441112735821882e-09	-5.796346164527598e-09	-1.231227479158712e-08	-5.064174510338065e-09
0.01	-0.04029828434375823	0.06902548161518857	0.8959201847974874	0.1962074978704346	-0.3218884798110633	-0.4875826757518297	-0.1380578894027228	0.07063225156921611	0.07063225156919611	-0.1745017272964138	-0.1220338715354694	-0.06694459988575985	0.004029526902380881	-0.05092915237371703	-0.02329533973227135	-0.01026183680807623	0.1350437879627968	-0.01988245122748846	0.03268175969623133	-0.03056260510689593	0.09532180275173538	0.09532180275172789	0.006227069194169204	-0.00759832918247991	0.01304932177697112	-0.01475398864346532	0.1011188674267424	-0.08542616815885663	-0.02770573396211008	-0.2102797406444053	0.150864775933355	-0.01621652511363645	-0.04970166957158124	12.44834191733464	0.910779406279607	4.03351973453789	15.13051707919376	-515.2901149984499	-79.33325402125243	-40.03558504201692	-4.929067493005177	-2.295952066410275	-1.00469763876421	13.16477948520255	-1.952828015473658	3.251615916190532	-3.06428156690811	9.305227716173873	9.305227716174723	0.5839693105593718	-0.686600644407783	1.249111584632577	-1.467479147548753	-5.020317803023287e-08	1.428024409038845e-07	1.706423634589448e-07	3.858579878372471e-08	-2.234751626991073e-07	-4.288919636941165e-08	-9.109959778931836e-09
0.02	-0.0410559137024795	0.06867847130433478	0.8957670844326545	0.1982179386774639	-0.3221841945370576	-0.4870952780079638	-0.138509447532527	0.07205141245540493	0.07205141245540511	-0.1744086486730005	-0.1221461641568489	-0.0667504835987075	0.00381008018886252	-0.1003443290654751	-0.04600994134006988	-0.0203251393928478	0.266435807503876	-0.03915942525286398	0.06468473557794215	-0.05947378298173889	0.1880837201862326	0.1880837201862333	0.01237534130584085	-0.01479298450971133	0.02570897434833944	-0.02906060868576301	0.09596918104972613	-0.08690035612272611	-0.02670242416536921	-0.2038527926471111	0.140891448341737	-0.01032579399624247	-0.04534546660871177	9.513929040879786	-1.082983325281134	4.293368995653424	15.87388207469066	-515.1324176430342	-83.29735038560956	-40.06446093930526	-5.042116805615961	-2.251513255744876	-1.019522209063674	13.27063531300398	-1.907710036771023	3.131600122858474	-2.62736159023909	9.346114063863554	9.346114063863594	0.6804828665076518	-0.8053790021166138	1.31915606242556	-1.379396147650141	-8.37658688018316e-08	1.845550902466059e-07	2.413684832734535e-07	7.073048483162753e-08	-4.411539792336871e-07	-7.346611794723618e-08	-1.315574504752561e-08
0.03	-0.04230107360778372	0.06810755044506821	0.8955140118778672	0.2015251181044612	-0.3226695209420885	-0.4862916537459498	-0.1392412625381402	0.07438600441948254	0.07438600441950377	-0.1742542152028852	-0.1223289036143988	-0.06643112786113699	0.003450265488091156	-0.148456436645149	-0.06804100049874466	-0.03027950002352466	0.3943758792800664	-0.05779442350850557	0.09590164397565694	-0.08663040487450391	0.2784045830373073	0.2784045830373155	0.01849054253893951	-0.02170125196162701	0.03813335633804971	-0.04279708281460345	0.09184064702218292	-0.08293169028370656	-0.0261864144240982	-0.2010597035817505	0.1394876787500221	-0.01121232073836847	-0.0417817368290145	9.087006922938551	-0.6924115078543682	4.310141406999283	15.37819571873826	-514.8906026144808	-81.60129039268918	-40.11121740307536	-4.661085982423321	-2.158903467668025	-0.9820013692065267	12.46204568955596	-1.824720045198528	3.095933826314079	-2.720990498876477	8.810561603956982	8.810561603958025	0.5739728395253754	-0.6254734031460483	1.199758334190051	-1.355042259327137	-1.094483787735833e-07	2.012696119266698e-07	2.896105046619991e-07	9.584871040052222e-08	-6.075238564931671e-07	-1.006791402922287e-07	-1.652306764154008e-08
